<?xml version="1.0" encoding="UTF-8" standalone="no"?>
<!-- Created with Inkscape (http://www.inkscape.org/) -->

<svg
   xmlns:dc="http://purl.org/dc/elements/1.1/"
   xmlns:cc="http://creativecommons.org/ns#"
   xmlns:rdf="http://www.w3.org/1999/02/22-rdf-syntax-ns#"
   xmlns:svg="http://www.w3.org/2000/svg"
   xmlns="http://www.w3.org/2000/svg"
   xmlns:sodipodi="http://sodipodi.sourceforge.net/DTD/sodipodi-0.dtd"
   xmlns:inkscape="http://www.inkscape.org/namespaces/inkscape"
   width="64"
   height="64"
   viewBox="0 0 60.000001 60.000001"
   id="svg2"
   version="1.1"
   inkscape:version="0.92.0 r15299"
   sodipodi:docname="Logo.svg"
   inkscape:export-filename="Logo.png"
   inkscape:export-xdpi="96"
   inkscape:export-ydpi="96">
  <defs
     id="defs4" />
  <sodipodi:namedview
     id="base"
     pagecolor="#ffffff"
     bordercolor="#666666"
     borderopacity="1.0"
     inkscape:pageopacity="0"
     inkscape:pageshadow="2"
     inkscape:zoom="20.766667"
     inkscape:cx="22.800963"
     inkscape:cy="30"
     inkscape:document-units="px"
     inkscape:current-layer="layer1"
     showgrid="true"
     fit-margin-top="0"
     fit-margin-left="0"
     fit-margin-right="0"
     fit-margin-bottom="0"
     units="px"
     inkscape:snap-bbox="true"
     inkscape:object-paths="true"
     inkscape:object-nodes="true"
     inkscape:snap-intersection-paths="true"
     inkscape:snap-smooth-nodes="true"
     inkscape:window-width="2560"
     inkscape:window-height="1377"
     inkscape:window-x="-8"
     inkscape:window-y="-8"
     inkscape:window-maximized="1">
    <inkscape:grid
       type="xygrid"
       id="grid4202"
       originx="0"
       originy="0"
       spacingx="0.5"
       spacingy="0.5" />
  </sodipodi:namedview>
  <metadata
     id="metadata7">
    <rdf:RDF>
      <cc:Work
         rdf:about="">
        <dc:format>image/svg+xml</dc:format>
        <dc:type
           rdf:resource="http://purl.org/dc/dcmitype/StillImage" />
        <dc:title />
      </cc:Work>
    </rdf:RDF>
  </metadata>
  <g
     inkscape:label="Layer 1"
     inkscape:groupmode="layer"
     id="layer1"
     transform="translate(-769.23645,-828.87073)">
    <path
       style="color:#000000;font-style:normal;font-variant:normal;font-weight:bold;font-stretch:normal;font-size:medium;line-height:125%;font-family:Consolas;-inkscape-font-specification:'Consolas Bold';text-indent:0;text-align:start;text-decoration:none;text-decoration-line:none;text-decoration-style:solid;text-decoration-color:#000000;letter-spacing:0px;word-spacing:0px;text-transform:none;writing-mode:lr-tb;direction:ltr;baseline-shift:baseline;text-anchor:start;white-space:normal;clip-rule:nonzero;display:inline;overflow:visible;visibility:visible;opacity:1;isolation:auto;mix-blend-mode:normal;color-interpolation:sRGB;color-interpolation-filters:linearRGB;solid-color:#000000;solid-opacity:1;fill:#f6f6f6;fill-opacity:1;fill-rule:nonzero;stroke:none;stroke-width:7.88905573;stroke-linecap:butt;stroke-linejoin:miter;stroke-miterlimit:4;stroke-dasharray:none;stroke-dashoffset:0;stroke-opacity:1;color-rendering:auto;image-rendering:auto;shape-rendering:auto;text-rendering:auto;enable-background:accumulate"
       d="M 13.402344,0.08007812 10.943359,2.7089844 c -1.5558192,1.6634 -2.9958096,3.462855 -4.3124996,5.390625 l -0.00195,0.00195 C 5.2911763,10.063022 4.125325,12.174894 3.140625,14.427734 l -0.00586,0.01367 -0.00391,0.01367 c -0.99174,2.30387 -1.7591313,4.767038 -2.30078128,7.361328 v 0.002 C 0.27309813,24.469419 0,27.252759 0,30.136719 c 0,5.19329 0.93258436,10.179498 2.7714844,14.730469 l 0.00391,0.0059 0.00195,0.0078 c 1.8474998,4.53483 4.5638728,8.664164 8.0390626,12.402344 l 2.486328,2.671875 2.279297,-2.951172 5.433594,-7.037109 L 18.378906,47 H 28 v -8 l 5.578125,8 h 8.042969 l -2.636719,2.966797 5.433594,7.037109 2.279297,2.951172 2.486328,-2.671875 c 3.4752,-3.73818 6.191562,-7.867514 8.039062,-12.402344 l 0.002,-0.0078 0.0039,-0.0059 C 59.067406,40.316217 60,35.330009 60,30.136719 c 0,-2.88396 -0.273098,-5.6673 -0.830078,-8.31836 v -0.002 c -0.54165,-2.59429 -1.309041,-5.057458 -2.300781,-7.361328 l -0.0039,-0.01367 -0.0059,-0.01367 C 55.874651,12.174851 54.70879,10.062979 53.37106,8.1015195 l -0.002,-0.00195 c -1.31669,-1.92777 -2.75669,-3.727225 -4.3125,-5.390625 l -2.458985,-2.62890628 -7.625,9.67773438 2.75,3.1308594 c 0.03243,0.03693 0.06159,0.07436 0.09375,0.111328 L 32,13 v 8 l -5,-8 h -8.816406 c 0.03216,-0.03697 0.06132,-0.0744 0.09375,-0.111328 l 2.75,-3.1308595 z"
       id="path4222"
       transform="translate(769.23645,828.87073)"
       inkscape:connector-curvature="0"
       sodipodi:nodetypes="cccccccccscccccccccccccccccccsccccccccccccccccccc" />
    <path
       inkscape:connector-curvature="0"
       id="path4227"
       style="font-style:normal;font-variant:normal;font-weight:bold;font-stretch:normal;font-size:medium;line-height:125%;font-family:Consolas;-inkscape-font-specification:'Consolas Bold';letter-spacing:0px;word-spacing:0px;fill:#424242;fill-opacity:1;stroke:none;stroke-width:1px;stroke-linecap:butt;stroke-linejoin:miter;stroke-opacity:1"
       d="m 782.28688,883.6619 q -4.7461,-5.34481 -7.12891,-11.46801 -2.36328,-6.12318 -2.36328,-13.18041 0,-3.94375 0.70312,-7.44643 0.70313,-3.5286 1.97266,-6.61615 1.28907,-3.08754 3.04688,-5.78589 1.77734,-2.7243 3.88672,-5.08537 l 2.71484,3.60646 q -3.8086,4.54051 -5.72266,9.80748 -1.91406,5.26698 -1.91406,11.07882 0,5.88968 1.91406,11.33827 1.91406,5.42266 5.72266,9.91126 z" />
    <path
       inkscape:connector-curvature="0"
       d="m 816.18606,883.6619 q 4.74609,-5.34481 7.1289,-11.46801 2.36328,-6.12318 2.36328,-13.18041 0,-3.94375 -0.70312,-7.44643 -0.70313,-3.5286 -1.97266,-6.61615 -1.28907,-3.08754 -3.04688,-5.78589 -1.77733,-2.7243 -3.88671,-5.08537 l -2.71485,3.60646 q 3.8086,4.54051 5.72266,9.80748 1.91406,5.26698 1.91406,11.07882 0,5.88968 -1.91406,11.33827 -1.91406,5.42266 -5.72266,9.91126 z"
       style="font-style:normal;font-variant:normal;font-weight:bold;font-stretch:normal;font-size:medium;line-height:125%;font-family:Consolas;-inkscape-font-specification:'Consolas Bold';letter-spacing:0px;word-spacing:0px;fill:#424242;fill-opacity:1;stroke:none;stroke-width:1px;stroke-linecap:butt;stroke-linejoin:miter;stroke-opacity:1"
       id="path4235" />
    <path
       sodipodi:nodetypes="ccccccccccc"
       inkscape:connector-curvature="0"
       id="polygon7"
       d="m 785.23645,845.87073 h 8 l 12,18 v -18 h 8 v 26 h -8 l -12,-18 v 18 h -8 z"
       style="fill:#424242;fill-opacity:1" />
  </g>
</svg>
