<?xml version="1.0" encoding="UTF-8" standalone="no"?>
<!-- Created with Inkscape (http://www.inkscape.org/) -->

<svg
   xmlns:dc="http://purl.org/dc/elements/1.1/"
   xmlns:cc="http://creativecommons.org/ns#"
   xmlns:rdf="http://www.w3.org/1999/02/22-rdf-syntax-ns#"
   xmlns:svg="http://www.w3.org/2000/svg"
   xmlns="http://www.w3.org/2000/svg"
   xmlns:sodipodi="http://sodipodi.sourceforge.net/DTD/sodipodi-0.dtd"
   xmlns:inkscape="http://www.inkscape.org/namespaces/inkscape"
   id="svg4136"
   version="1.1"
   inkscape:version="0.91 r13725"
   xml:space="preserve"
   width="320"
   height="320"
   viewBox="0 0 320 320"
   sodipodi:docname="Logo.svg"><metadata
     id="metadata4142"><rdf:RDF><cc:Work
         rdf:about=""><dc:format>image/svg+xml</dc:format><dc:type
           rdf:resource="http://purl.org/dc/dcmitype/StillImage" /><dc:title></dc:title></cc:Work></rdf:RDF></metadata><defs
     id="defs4140"><clipPath
       clipPathUnits="userSpaceOnUse"
       id="clipPath4150"><path
         d="M 0,256 256,256 256,0 0,0 0,256 Z"
         id="path4152"
         inkscape:connector-curvature="0" /></clipPath><clipPath
       clipPathUnits="userSpaceOnUse"
       id="clipPath4162"><path
         d="M 0,256 256,256 256,0 0,0 0,256 Z"
         id="path4164"
         inkscape:connector-curvature="0" /></clipPath><clipPath
       clipPathUnits="userSpaceOnUse"
       id="clipPath4186"><path
         d="M 0,256 256,256 256,0 0,0 0,256 Z"
         id="path4188"
         inkscape:connector-curvature="0" /></clipPath></defs><sodipodi:namedview
     pagecolor="#ffffff"
     bordercolor="#666666"
     borderopacity="1"
     objecttolerance="10"
     gridtolerance="10"
     guidetolerance="10"
     inkscape:pageopacity="0"
     inkscape:pageshadow="2"
     inkscape:window-width="2560"
     inkscape:window-height="1377"
     id="namedview4138"
     showgrid="false"
     inkscape:zoom="3.89375"
     inkscape:cx="160"
     inkscape:cy="160"
     inkscape:window-x="-8"
     inkscape:window-y="-8"
     inkscape:window-maximized="1"
     inkscape:current-layer="g4144" /><g
     id="g4144"
     inkscape:groupmode="layer"
     inkscape:label="PartitionFunction_256x"
     transform="matrix(1.25,0,0,-1.25,0,320)"><g
       id="g4146"><g
         id="g4148"
         clip-path="url(#clipPath4150)"><g
           id="g4154"
           transform="translate(216,202.8867)"><path
             d="m 0,0 -8,-5.336 0,10.672 -71.156,47.437 -33.688,0 -95.156,-63.437 0,-97.125 18.898,-12.602 -5.75,-18.593 8.606,0 -5.953,-21.235 c -0.293,0.008 -0.586,0.016 -0.887,0.016 -7.367,0 -12.367,-2.883 -15.215,-5.258 -4.965,-4.109 -7.699,-9.812 -7.699,-16.055 0,-6.632 3.227,-12.797 8.789,-16.867 4.402,-3.265 9.871,-4.844 16.719,-4.844 8.183,0 15.648,2.047 22.176,6.063 6.253,3.844 11.625,9.562 15.992,17.031 0.363,0.625 0.726,1.281 1.086,1.969 0.465,-0.516 0.961,-1.016 1.484,-1.492 2.871,-2.571 7.883,-5.649 15.449,-5.649 4.098,0 8.043,0.805 11.899,2.469 3.207,1.422 6.402,3.625 9.926,6.836 1.875,-2.195 3.988,-4.023 6.328,-5.461 4.148,-2.531 9,-3.828 14.418,-3.836 l 14.89,-9.93 9.688,0 L 40,-123.789 40,-26.664 0,0 Z"
             style="fill:#f6f6f6;fill-opacity:1;fill-rule:nonzero;stroke:none"
             id="path4156"
             inkscape:connector-curvature="0" /></g></g></g><g
       id="g4158"><g
         id="g4160"
         clip-path="url(#clipPath4162)"><g
           id="g4166"
           transform="translate(96,145.2852)"><path
             d="M 0,0 -50.359,33.563 24,83.156 74.359,49.563 0,0 Z m 120,38.375 -24,-16 0,32 -72,48 -96,-64 0,-80 7.828,-5.219 1.164,3.766 9.738,-0.141 c 1.278,2.039 2.586,3.938 3.926,5.711 l -6.656,4.438 0,51.164 48,-32 0,-3.953 c 5.664,-0.52 10.348,-2.161 14.121,-5.121 0.703,-0.536 1.254,-1.2 1.879,-1.801 l 0,10.875 72,48 0,-22.391 -56,-37.328 0,-19.523 1.348,-1.907 c 1.222,0.867 2.418,1.586 3.617,2.18 4.008,1.953 8.156,2.906 12.465,2.906 7.883,0 12.945,-3.203 15.82,-5.89 4.313,-3.954 6.75,-9.657 6.75,-15.93 0,-6.102 -2.391,-11.711 -6.75,-15.789 -1.812,-1.727 -3.914,-3.11 -6.219,-4.102 l 17.828,-9.351 -10.125,-14.844 c -3.843,-5.617 -7.742,-9.867 -11.843,-13.016 l 1.109,-0.734 96,64 0,80 -24,16 z"
             style="fill:#424242;fill-opacity:1;fill-rule:nonzero;stroke:none"
             id="path4168"
             inkscape:connector-curvature="0" /></g><g
           id="g4170"
           transform="translate(125.9063,75.4023)"><path
             d="m 0,0 c 1.461,1.055 3,1.578 4.617,1.578 0.61,0 1.727,-0.203 3.297,-0.594 1.617,-0.406 3.024,-0.609 4.242,-0.609 1.696,0 3.125,0.531 4.242,1.594 1.149,1.078 1.696,2.445 1.696,4.125 0,1.781 -0.547,3.203 -1.696,4.258 -1.117,1.046 -2.75,1.562 -4.875,1.562 -1.867,0 -3.648,-0.406 -5.335,-1.226 C 4.523,9.859 2.414,8.094 -0.164,5.359 -2.078,3.328 -4.938,-0.219 -8.688,-5.297 c -1.507,6.266 -4.07,12 -7.75,17.211 l -24.46,0 0,-8.953 c 1.492,0.273 6.742,4.234 7.765,4.234 2.008,0 3.656,-0.789 4.961,-2.367 2.078,-2.445 4.969,-9.891 8.656,-22.351 -2.89,-3.532 -8.359,-9.477 -9.437,-10.555 -1.766,-1.75 -3.235,-2.883 -4.383,-3.406 -0.867,-0.438 -1.875,-0.633 -3,-0.633 -0.836,0 -2.227,0.406 -4.148,1.273 -1.305,0.539 -2.469,0.836 -3.508,0.836 -1.961,0 -3.578,-0.594 -4.852,-1.75 -1.273,-1.148 -1.898,-2.601 -1.898,-4.398 0,-1.672 0.594,-3.032 1.773,-4.11 1.149,-1.031 2.75,-1.554 4.758,-1.554 1.898,0 3.711,0.359 5.398,1.086 1.688,0.75 3.813,2.304 6.375,4.718 2.555,2.375 9.563,9.813 14.063,15.024 1.719,-4.961 5.062,-12.219 6.32,-14.461 1.258,-2.242 2.719,-3.875 4.352,-4.875 1.633,-1 3.664,-1.492 6.14,-1.492 2.376,0 4.797,0.757 7.251,2.351 3.218,2.016 6.531,5.531 9.921,10.5 l -2.07,1.086 c -2.312,-2.914 -4.039,-4.758 -5.125,-5.5 -0.734,-0.461 -1.601,-0.695 -2.617,-0.695 -1.18,0 -2.359,0.695 -3.508,2.07 -1.976,2.289 -6.406,12.32 -9.664,22.82 C -4.453,-4.492 -2,-1.438 0,0"
             style="fill:#424242;fill-opacity:1;fill-rule:nonzero;stroke:none"
             id="path4172"
             inkscape:connector-curvature="0" /></g><g
           id="g4174"
           transform="translate(67.5703,86.043)"><path
             d="m 0,0 c 2.375,8.859 5.523,15.336 9.445,19.422 2.375,2.562 4.703,3.828 6.961,3.828 0.485,0 0.844,-0.109 1.117,-0.359 0.313,-0.25 0.454,-0.555 0.454,-0.953 0,-0.336 -0.329,-1.016 -0.961,-1.993 -0.625,-0.968 -0.946,-1.898 -0.946,-2.781 0,-1.226 0.493,-2.273 1.5,-3.148 1.016,-0.875 2.266,-1.313 3.797,-1.313 1.656,0 3.031,0.539 4.149,1.602 1.117,1.07 1.679,2.523 1.679,4.336 0,2.07 -0.828,3.742 -2.515,5.031 -1.664,1.305 -4.352,1.945 -8.039,1.945 C 10.891,25.617 5.656,24.086 0.977,21 -3.719,17.922 -8.164,12.836 -12.391,5.719 -13.852,3.281 -15.242,1.695 -16.539,0.992 -17.852,0.305 -19.945,-0.039 -22.828,0 l -1.899,-6.141 8.016,0 -11.766,-41.953 c -1.945,-6.89 -3.289,-11.133 -3.968,-12.742 -0.985,-2.336 -2.524,-4.328 -4.563,-5.984 -0.789,-0.664 -1.773,-1.008 -2.922,-1.008 -0.312,0 -0.578,0.094 -0.82,0.281 l -0.289,0.367 c 0,0.18 0.289,0.524 0.875,1.063 0.562,0.539 0.867,1.383 0.867,2.492 0,1.227 -0.469,2.25 -1.383,3.039 -0.929,0.82 -2.25,1.227 -3.976,1.227 -2.071,0 -3.742,-0.524 -5.016,-1.586 -1.266,-1.047 -1.898,-2.289 -1.898,-3.727 0,-1.539 0.757,-2.875 2.304,-4.008 1.532,-1.133 3.93,-1.703 7.203,-1.703 5.188,0 9.79,1.227 13.797,3.695 4.016,2.469 7.524,6.282 10.524,11.415 2.976,5.14 6.07,13.445 9.203,24.898 l 6.75,24.234 8.125,0 L 8.359,0 0,0 Z"
             style="fill:#424242;fill-opacity:1;fill-rule:nonzero;stroke:none"
             id="path4176"
             inkscape:connector-curvature="0" /></g></g></g><g
       id="g4178"
       transform="translate(120,228.4414)"><path
         d="M 0,0 -74.359,-49.594 -24,-83.156 50.359,-33.594 0,0 Z"
         style="fill:#f0eff1;fill-opacity:1;fill-rule:nonzero;stroke:none"
         id="path4180"
         inkscape:connector-curvature="0" /></g><g
       id="g4182"><g
         id="g4184"
         clip-path="url(#clipPath4186)"><g
           id="g4190"
           transform="translate(40,112.2148)"><path
             d="m 0,0 6.656,-4.438 c 4.051,5.368 8.391,9.547 13.117,12.649 7.27,4.793 15.504,7.234 24.438,7.234 1.332,0 2.555,-0.125 3.789,-0.234 l 0,3.953 -48,32 L 0,0 Z"
             style="fill:#f0eff1;fill-opacity:1;fill-rule:nonzero;stroke:none"
             id="path4192"
             inkscape:connector-curvature="0" /></g><g
           id="g4194"
           transform="translate(104,131.3789)"><path
             d="M 0,0 0,-10.875 C 4.273,-15 6.766,-20.5 6.766,-26.695 c 0,-0.461 -0.012,-0.914 -0.039,-1.368 l 7.031,0 L 16,-31.242 16,-11.719 72,25.609 72,48 0,0 Z"
             style="fill:#f0eff1;fill-opacity:1;fill-rule:nonzero;stroke:none"
             id="path4196"
             inkscape:connector-curvature="0" /></g></g></g></g></svg>